<svg xmlns="http://www.w3.org/2000/svg" width="228.187" height="177.78" viewBox="0 0 228.187 177.78">
  <g id="Group_133" data-name="Group 133" transform="translate(-5250.444 -724.147)">
    <g id="Group_132" data-name="Group 132">
      <g id="Group_131" data-name="Group 131">
        <g id="Group_130" data-name="Group 130">
          <g id="Group_129" data-name="Group 129">
            <g id="Group_128" data-name="Group 128">
              <rect id="Rectangle_29" data-name="Rectangle 29" width="123.888" height="24.777" transform="translate(5251.065 811.749) rotate(-45)" fill="#48494e"/>
              <rect id="Rectangle_30" data-name="Rectangle 30" width="123.888" height="24.778" transform="translate(5338.046 899.972) rotate(-135)" fill="#48494e"/>
              <rect id="Rectangle_34" data-name="Rectangle 34" width="24.77" height="24.77" transform="translate(5268 830.015) rotate(-45)" fill="#ff6767"/>
              <rect id="Rectangle_31" data-name="Rectangle 31" width="123.888" height="24.777" transform="translate(5323.345 883.594) rotate(-45)" fill="#48494e"/>
              <rect id="Rectangle_35" data-name="Rectangle 35" width="24.77" height="24.77" transform="translate(5393.643 813.296) rotate(-45)" fill="#ff6767"/>
              <rect id="Rectangle_36" data-name="Rectangle 36" width="24.77" height="24.77" transform="translate(5322.527 884.412) rotate(-45)" fill="#ff6767"/>
              <rect id="Rectangle_29-2" data-name="Rectangle 29" width="123.888" height="24.778" transform="translate(5460.49 829.27) rotate(-135)" fill="#48494e"/>
              <rect id="Rectangle_30-2" data-name="Rectangle 30" width="123.888" height="24.778" transform="translate(5373.509 882.451) rotate(-45)" fill="#48494e"/>
              <rect id="Rectangle_34-2" data-name="Rectangle 34" width="24.77" height="24.77" transform="translate(5443.515 847.53) rotate(-135)" fill="#ff6767"/>
              <g id="Group_87" data-name="Group 87" transform="translate(5406.548 901.927) rotate(180)">
                <rect id="Rectangle_31-2" data-name="Rectangle 31" width="123.888" height="24.778" transform="translate(18.338 0.813) rotate(45)" fill="#48494e"/>
                <rect id="Rectangle_35-2" data-name="Rectangle 35" width="24.77" height="24.77" transform="translate(88.631 71.116) rotate(45)" fill="#ff6767"/>
                <rect id="Rectangle_36-2" data-name="Rectangle 36" width="24.77" height="24.77" transform="translate(17.515 0) rotate(45)" fill="#ff6767"/>
              </g>
            </g>
          </g>
        </g>
      </g>
    </g>
  </g>
</svg>
