<svg xmlns="http://www.w3.org/2000/svg" width="228.187" height="177.78" viewBox="0 0 228.187 177.78">
  <g id="Group_131" data-name="Group 131" transform="translate(-5250.444 -724.147)">
    <g id="Group_130" data-name="Group 130" transform="translate(5250.444 901.927) rotate(-90)">
      <rect id="Rectangle_29" data-name="Rectangle 29" width="123.888" height="24.777" transform="translate(90.178 0.621) rotate(45)" fill="#fff"/>
      <rect id="Rectangle_30" data-name="Rectangle 30" width="123.888" height="24.778" transform="translate(1.955 87.602) rotate(-45)" fill="#fff"/>
      <rect id="Rectangle_34" data-name="Rectangle 34" width="24.77" height="24.77" transform="translate(71.467 18.091) rotate(45)" fill="#ff6767"/>
      <g id="Group_87" data-name="Group 87" transform="translate(106.145 72.083) rotate(90)">
        <rect id="Rectangle_31" data-name="Rectangle 31" width="123.888" height="24.777" transform="translate(0.818 87.813) rotate(-45)" fill="#fff"/>
        <rect id="Rectangle_35" data-name="Rectangle 35" width="24.77" height="24.77" transform="translate(71.116 17.515) rotate(-45)" fill="#ff6767"/>
        <rect id="Rectangle_36" data-name="Rectangle 36" width="24.77" height="24.77" transform="translate(0 88.631) rotate(-45)" fill="#ff6767"/>
      </g>
    </g>
    <g id="Group_129" data-name="Group 129" transform="translate(5300.403 901.927) rotate(-90)">
      <rect id="Rectangle_29-2" data-name="Rectangle 29" width="123.888" height="24.778" transform="translate(72.658 160.087) rotate(-45)" fill="#fff"/>
      <rect id="Rectangle_30-2" data-name="Rectangle 30" width="123.888" height="24.778" transform="translate(19.476 73.106) rotate(45)" fill="#fff"/>
      <rect id="Rectangle_34-2" data-name="Rectangle 34" width="24.77" height="24.77" transform="translate(53.952 142.623) rotate(-45)" fill="#ff6767"/>
      <g id="Group_87-2" data-name="Group 87" transform="translate(0 106.145) rotate(-90)">
        <rect id="Rectangle_31-2" data-name="Rectangle 31" width="123.888" height="24.778" transform="translate(18.338 0.813) rotate(45)" fill="#fff"/>
        <rect id="Rectangle_35-2" data-name="Rectangle 35" width="24.77" height="24.77" transform="translate(88.631 71.116) rotate(45)" fill="#ff6767"/>
        <rect id="Rectangle_36-2" data-name="Rectangle 36" width="24.77" height="24.77" transform="translate(17.515 0) rotate(45)" fill="#ff6767"/>
      </g>
    </g>
  </g>
</svg>
